<?xml version="1.0" encoding="UTF-8"?> <svg xmlns="http://www.w3.org/2000/svg" xmlns:xlink="http://www.w3.org/1999/xlink" width="298pt" height="85pt" viewBox="0 0 298 85" version="1.1"><g id="surface1"><path style=" stroke:none;fill-rule:nonzero;fill:rgb(4.313725%,34.901961%,29.019608%);fill-opacity:1;" d="M 0 64.128906 L 0 32.859375 C 0 25.796875 3.214844 23.113281 10.492188 23.113281 L 15.09375 23.113281 C 28.261719 23.113281 35.199219 26.101562 35.199219 38.089844 C 35.199219 50.074219 28.261719 53.128906 15.09375 53.128906 L 9.542969 53.128906 L 9.542969 64.128906 C 9.640625 64.984375 9.34375 65.835938 8.734375 66.445312 C 8.128906 67.050781 7.28125 67.351562 6.429688 67.253906 L 3.113281 67.253906 C 2.261719 67.347656 1.414062 67.050781 0.808594 66.445312 C 0.203125 65.835938 -0.09375 64.984375 0 64.128906 Z M 25.652344 38.019531 C 25.652344 32.691406 23.117188 31.09375 16.144531 31.09375 L 12.320312 31.09375 C 9.984375 31.09375 9.542969 32.316406 9.542969 34.320312 L 9.542969 45.015625 L 16.144531 45.015625 C 23.117188 45.015625 25.652344 43.351562 25.652344 38.019531 Z M 25.652344 38.019531 "></path><path style=" stroke:none;fill-rule:nonzero;fill:rgb(4.313725%,34.901961%,29.019608%);fill-opacity:1;" d="M 42.75 57.511719 L 42.75 32.859375 C 42.75 25.796875 45.96875 23.113281 53.242188 23.113281 L 71.554688 23.113281 C 72.40625 23.019531 73.253906 23.316406 73.859375 23.925781 C 74.464844 24.535156 74.761719 25.382812 74.667969 26.238281 L 74.667969 28.140625 C 74.761719 28.996094 74.464844 29.84375 73.859375 30.453125 C 73.253906 31.0625 72.40625 31.359375 71.554688 31.265625 L 55.578125 31.265625 C 52.769531 31.265625 52.296875 32.351562 52.296875 34.082031 L 52.296875 41.007812 L 68.269531 41.007812 C 69.121094 40.914062 69.96875 41.210938 70.574219 41.820312 C 71.183594 42.425781 71.480469 43.277344 71.382812 44.132812 L 71.382812 45.863281 C 71.480469 46.71875 71.183594 47.566406 70.574219 48.175781 C 69.96875 48.785156 69.121094 49.082031 68.269531 48.984375 L 52.296875 48.984375 L 52.296875 56.285156 C 52.296875 58.019531 52.769531 59.105469 55.578125 59.105469 L 72.769531 59.105469 C 73.621094 59.007812 74.472656 59.308594 75.078125 59.914062 C 75.683594 60.523438 75.980469 61.375 75.886719 62.230469 L 75.886719 64.128906 C 75.980469 64.984375 75.683594 65.835938 75.078125 66.441406 C 74.472656 67.050781 73.621094 67.347656 72.769531 67.253906 L 53.242188 67.253906 C 45.96875 67.253906 42.75 64.570312 42.75 57.511719 Z M 42.75 57.511719 "></path><path style=" stroke:none;fill-rule:nonzero;fill:rgb(4.313725%,34.901961%,29.019608%);fill-opacity:1;" d="M 117.316406 26.238281 L 117.316406 28.582031 C 117.414062 29.433594 117.117188 30.285156 116.507812 30.894531 C 115.902344 31.5 115.054688 31.800781 114.203125 31.703125 L 103.273438 31.703125 L 103.273438 64.128906 C 103.367188 64.984375 103.070312 65.835938 102.464844 66.441406 C 101.859375 67.050781 101.011719 67.347656 100.160156 67.253906 L 96.738281 67.253906 C 95.886719 67.347656 95.039062 67.050781 94.433594 66.441406 C 93.828125 65.835938 93.53125 64.984375 93.625 64.128906 L 93.625 31.703125 L 82.695312 31.703125 C 81.84375 31.800781 80.996094 31.5 80.390625 30.894531 C 79.785156 30.285156 79.488281 29.433594 79.582031 28.582031 L 79.582031 26.238281 C 79.488281 25.382812 79.785156 24.53125 80.390625 23.925781 C 80.996094 23.316406 81.84375 23.019531 82.695312 23.113281 L 114.203125 23.113281 C 115.054688 23.019531 115.902344 23.316406 116.507812 23.925781 C 117.117188 24.53125 117.414062 25.382812 117.316406 26.238281 Z M 117.316406 26.238281 "></path><path style=" stroke:none;fill-rule:nonzero;fill:rgb(4.313725%,34.901961%,29.019608%);fill-opacity:1;" d="M 120.875 62.941406 L 120.875 61.652344 C 120.875 59.476562 122.164062 58.496094 124.328125 58.902344 C 132.960938 60.496094 142.742188 60.496094 142.742188 54.964844 C 142.742188 52.925781 141.523438 51.363281 136.785156 49.429688 L 132.554688 47.59375 C 124.160156 43.960938 121.148438 40.160156 121.148438 34.558594 C 121.148438 23.351562 133.332031 20.535156 147.074219 23.726562 C 148.746094 23.984375 149.929688 25.5 149.78125 27.1875 L 149.78125 28.582031 C 149.898438 29.484375 149.539062 30.382812 148.835938 30.957031 C 148.132812 31.53125 147.183594 31.699219 146.328125 31.398438 C 138.203125 30.039062 130.65625 29.9375 130.65625 34.386719 C 130.65625 36.355469 131.945312 37.953125 136.242188 39.683594 L 140.167969 41.347656 C 148.664062 44.945312 152.285156 48.613281 152.285156 54.964844 C 152.285156 67.527344 137.5625 69.835938 123.550781 66.40625 C 121.890625 66.136719 120.722656 64.621094 120.875 62.941406 Z M 120.875 62.941406 "></path><path style=" stroke:none;fill-rule:nonzero;fill:rgb(4.313725%,34.901961%,29.019608%);fill-opacity:1;" d="M 193.546875 26.238281 L 193.546875 28.582031 C 193.640625 29.433594 193.34375 30.285156 192.738281 30.894531 C 192.132812 31.5 191.285156 31.800781 190.433594 31.703125 L 179.5 31.703125 L 179.5 64.128906 C 179.597656 64.984375 179.296875 65.835938 178.691406 66.441406 C 178.085938 67.050781 177.238281 67.347656 176.386719 67.253906 L 172.96875 67.253906 C 172.117188 67.347656 171.269531 67.050781 170.664062 66.441406 C 170.058594 65.835938 169.761719 64.984375 169.855469 64.128906 L 169.855469 31.703125 L 158.921875 31.703125 C 158.074219 31.800781 157.222656 31.5 156.617188 30.894531 C 156.011719 30.285156 155.714844 29.433594 155.808594 28.582031 L 155.808594 26.238281 C 155.714844 25.382812 156.011719 24.535156 156.617188 23.925781 C 157.222656 23.316406 158.074219 23.019531 158.921875 23.113281 L 190.433594 23.113281 C 191.285156 23.019531 192.132812 23.316406 192.738281 23.925781 C 193.34375 24.53125 193.640625 25.382812 193.546875 26.238281 Z M 193.546875 26.238281 "></path><path style=" stroke:none;fill-rule:nonzero;fill:rgb(4.313725%,34.901961%,29.019608%);fill-opacity:1;" d="M 238.734375 26.238281 L 238.734375 49.222656 C 238.734375 61.820312 233.453125 67.867188 219.039062 67.867188 C 204.621094 67.867188 199.339844 61.820312 199.339844 49.222656 L 199.339844 26.238281 C 199.246094 25.382812 199.542969 24.535156 200.148438 23.925781 C 200.753906 23.316406 201.605469 23.019531 202.453125 23.113281 L 205.769531 23.113281 C 206.621094 23.019531 207.472656 23.316406 208.078125 23.925781 C 208.683594 24.53125 208.980469 25.382812 208.886719 26.238281 L 208.886719 49.734375 C 208.886719 56.289062 211.898438 59.242188 219.039062 59.242188 C 226.246094 59.242188 229.191406 56.289062 229.191406 49.734375 L 229.191406 26.238281 C 229.097656 25.382812 229.394531 24.535156 230 23.925781 C 230.605469 23.316406 231.453125 23.019531 232.304688 23.113281 L 235.621094 23.113281 C 236.472656 23.019531 237.320312 23.316406 237.925781 23.925781 C 238.535156 24.53125 238.832031 25.382812 238.734375 26.238281 Z M 238.734375 26.238281 "></path><path style=" stroke:none;fill-rule:nonzero;fill:rgb(4.313725%,34.901961%,29.019608%);fill-opacity:1;" d="M 248.21875 64.128906 L 248.21875 32.859375 C 248.21875 25.796875 251.433594 23.113281 258.710938 23.113281 L 263.3125 23.113281 C 276.480469 23.113281 283.417969 26.101562 283.417969 38.089844 C 283.417969 50.074219 276.480469 53.128906 263.3125 53.128906 L 257.761719 53.128906 L 257.761719 64.128906 C 257.859375 64.984375 257.5625 65.835938 256.953125 66.445312 C 256.347656 67.050781 255.5 67.347656 254.648438 67.253906 L 251.332031 67.253906 C 250.480469 67.351562 249.632812 67.050781 249.027344 66.445312 C 248.421875 65.835938 248.125 64.984375 248.21875 64.128906 Z M 273.871094 38.019531 C 273.871094 32.691406 271.335938 31.09375 264.363281 31.09375 L 260.539062 31.09375 C 258.203125 31.09375 257.761719 32.316406 257.761719 34.320312 L 257.761719 45.015625 L 264.363281 45.015625 C 271.335938 45.015625 273.871094 43.351562 273.871094 38.019531 Z M 273.871094 38.019531 "></path><path style=" stroke:none;fill-rule:nonzero;fill:rgb(76.078431%,85.490196%,39.215686%);fill-opacity:1;" d="M 178.492188 78.257812 L 176.730469 78.257812 L 176.730469 80.953125 C 176.753906 81.269531 176.65625 81.582031 176.457031 81.828125 C 176.285156 82.027344 176.03125 82.132812 175.769531 82.128906 C 175.503906 82.136719 175.25 82.03125 175.070312 81.832031 C 174.878906 81.585938 174.785156 81.277344 174.804688 80.964844 L 174.804688 73.625 C 174.773438 73.296875 174.878906 72.964844 175.097656 72.714844 C 175.359375 72.511719 175.691406 72.414062 176.023438 72.445312 L 178.492188 72.445312 C 179.058594 72.425781 179.621094 72.484375 180.175781 72.613281 C 180.546875 72.710938 180.890625 72.894531 181.179688 73.152344 C 181.464844 73.40625 181.683594 73.722656 181.824219 74.074219 C 181.976562 74.464844 182.050781 74.882812 182.042969 75.300781 C 182.101562 76.136719 181.773438 76.949219 181.152344 77.507812 C 180.378906 78.0625 179.4375 78.328125 178.492188 78.257812 Z M 178.023438 73.890625 L 176.730469 73.890625 L 176.730469 76.800781 L 178.023438 76.800781 C 178.410156 76.8125 178.792969 76.761719 179.160156 76.660156 C 179.4375 76.582031 179.679688 76.417969 179.855469 76.191406 C 180.027344 75.941406 180.109375 75.644531 180.097656 75.339844 C 180.113281 74.964844 179.980469 74.59375 179.726562 74.316406 C 179.230469 73.96875 178.625 73.816406 178.023438 73.890625 Z M 178.023438 73.890625 "></path><path style=" stroke:none;fill-rule:nonzero;fill:rgb(76.078431%,85.490196%,39.215686%);fill-opacity:1;" d="M 188.117188 81.128906 L 188.117188 80.902344 C 187.925781 81.152344 187.699219 81.378906 187.453125 81.578125 C 187.222656 81.757812 186.964844 81.894531 186.6875 81.980469 C 186.382812 82.074219 186.0625 82.121094 185.742188 82.113281 C 185.34375 82.121094 184.949219 82.03125 184.59375 81.847656 C 184.269531 81.683594 183.996094 81.429688 183.808594 81.117188 C 183.558594 80.613281 183.445312 80.050781 183.476562 79.492188 L 183.476562 75.976562 C 183.453125 75.691406 183.539062 75.40625 183.714844 75.179688 C 183.878906 75.003906 184.109375 74.910156 184.351562 74.917969 C 184.59375 74.910156 184.832031 75.007812 185 75.183594 C 185.179688 75.40625 185.265625 75.691406 185.246094 75.976562 L 185.246094 78.816406 C 185.238281 79.164062 185.273438 79.511719 185.347656 79.851562 C 185.402344 80.105469 185.53125 80.332031 185.71875 80.507812 C 185.925781 80.675781 186.183594 80.761719 186.449219 80.746094 C 186.75 80.746094 187.042969 80.652344 187.289062 80.480469 C 187.546875 80.308594 187.746094 80.066406 187.867188 79.78125 C 187.996094 79.242188 188.046875 78.6875 188.015625 78.132812 L 188.015625 75.976562 C 187.992188 75.691406 188.082031 75.40625 188.261719 75.183594 C 188.425781 75.007812 188.660156 74.910156 188.902344 74.917969 C 189.140625 74.910156 189.375 75.003906 189.539062 75.179688 C 189.710938 75.40625 189.796875 75.691406 189.777344 75.976562 L 189.777344 81.117188 C 189.796875 81.390625 189.714844 81.660156 189.546875 81.875 C 189.394531 82.042969 189.179688 82.136719 188.953125 82.128906 C 188.726562 82.132812 188.507812 82.039062 188.355469 81.867188 C 188.1875 81.660156 188.101562 81.394531 188.117188 81.128906 Z M 188.117188 81.128906 "></path><path style=" stroke:none;fill-rule:nonzero;fill:rgb(76.078431%,85.490196%,39.215686%);fill-opacity:1;" d="M 193.167969 75.914062 L 193.167969 76.125 C 193.449219 75.757812 193.804688 75.449219 194.207031 75.21875 C 194.582031 75.023438 195 74.925781 195.421875 74.929688 C 195.953125 74.925781 196.472656 75.074219 196.925781 75.355469 C 197.398438 75.652344 197.773438 76.078125 198.007812 76.585938 C 198.289062 77.1875 198.425781 77.847656 198.40625 78.511719 C 198.414062 79.019531 198.335938 79.527344 198.179688 80.011719 C 198.042969 80.433594 197.832031 80.824219 197.546875 81.164062 C 197.285156 81.46875 196.960938 81.710938 196.597656 81.878906 C 196.230469 82.046875 195.828125 82.128906 195.421875 82.128906 C 194.980469 82.144531 194.539062 82.039062 194.152344 81.824219 C 193.769531 81.585938 193.4375 81.285156 193.167969 80.925781 L 193.167969 83.589844 C 193.167969 84.371094 192.886719 84.757812 192.320312 84.757812 C 192.0625 84.792969 191.804688 84.675781 191.660156 84.457031 C 191.539062 84.179688 191.480469 83.878906 191.5 83.578125 L 191.5 75.925781 C 191.476562 75.652344 191.554688 75.382812 191.71875 75.167969 C 191.871094 75 192.09375 74.90625 192.320312 74.917969 C 192.550781 74.910156 192.777344 75.003906 192.933594 75.175781 C 193.101562 75.382812 193.1875 75.644531 193.167969 75.914062 Z M 196.632812 78.492188 C 196.644531 78.078125 196.570312 77.667969 196.417969 77.285156 C 196.300781 76.976562 196.09375 76.710938 195.828125 76.511719 C 195.582031 76.335938 195.289062 76.242188 194.988281 76.242188 C 194.511719 76.238281 194.058594 76.449219 193.753906 76.820312 C 193.386719 77.308594 193.210938 77.914062 193.253906 78.523438 C 193.21875 79.113281 193.394531 79.699219 193.75 80.167969 C 194.050781 80.546875 194.507812 80.761719 194.988281 80.757812 C 195.28125 80.757812 195.566406 80.667969 195.804688 80.5 C 196.074219 80.304688 196.28125 80.039062 196.40625 79.730469 C 196.566406 79.339844 196.644531 78.914062 196.632812 78.492188 Z M 196.632812 78.492188 "></path><path style=" stroke:none;fill-rule:nonzero;fill:rgb(76.078431%,85.490196%,39.215686%);fill-opacity:1;" d="M 200.519531 82.140625 C 200.25 82.148438 199.988281 82.054688 199.78125 81.878906 C 199.570312 81.695312 199.453125 81.421875 199.46875 81.140625 C 199.464844 80.878906 199.578125 80.625 199.773438 80.453125 C 199.96875 80.269531 200.226562 80.167969 200.492188 80.171875 C 200.691406 80.171875 200.890625 80.230469 201.054688 80.34375 C 201.234375 80.464844 201.371094 80.636719 201.449219 80.839844 C 201.554688 81.09375 201.601562 81.371094 201.59375 81.648438 C 201.597656 82.0625 201.503906 82.476562 201.320312 82.851562 C 201.164062 83.191406 200.941406 83.496094 200.65625 83.742188 C 200.464844 83.929688 200.214844 84.046875 199.949219 84.070312 C 199.824219 84.074219 199.707031 84.027344 199.621094 83.9375 C 199.539062 83.855469 199.496094 83.742188 199.496094 83.628906 C 199.5 83.445312 199.601562 83.28125 199.761719 83.199219 C 200.195312 83.019531 200.488281 82.609375 200.519531 82.140625 Z M 200.519531 82.140625 "></path><path style=" stroke:none;fill-rule:nonzero;fill:rgb(76.078431%,85.490196%,39.215686%);fill-opacity:1;" d="M 208.417969 75.914062 L 208.417969 76.125 C 208.699219 75.757812 209.050781 75.449219 209.453125 75.21875 C 209.828125 75.023438 210.25 74.925781 210.671875 74.929688 C 211.203125 74.925781 211.722656 75.074219 212.171875 75.355469 C 212.644531 75.652344 213.023438 76.082031 213.257812 76.585938 C 213.535156 77.1875 213.671875 77.847656 213.65625 78.511719 C 213.660156 79.019531 213.585938 79.527344 213.425781 80.011719 C 213.292969 80.433594 213.078125 80.824219 212.792969 81.164062 C 212.535156 81.46875 212.210938 81.710938 211.847656 81.878906 C 211.476562 82.046875 211.078125 82.128906 210.671875 82.128906 C 210.226562 82.144531 209.789062 82.039062 209.398438 81.824219 C 209.019531 81.585938 208.6875 81.285156 208.417969 80.925781 L 208.417969 83.589844 C 208.417969 84.371094 208.136719 84.757812 207.570312 84.757812 C 207.308594 84.792969 207.050781 84.675781 206.910156 84.457031 C 206.785156 84.179688 206.730469 83.878906 206.75 83.578125 L 206.75 75.925781 C 206.726562 75.652344 206.804688 75.386719 206.96875 75.167969 C 207.121094 75 207.34375 74.90625 207.570312 74.917969 C 207.800781 74.910156 208.023438 75.003906 208.183594 75.175781 C 208.351562 75.382812 208.4375 75.644531 208.417969 75.914062 Z M 211.882812 78.492188 C 211.890625 78.078125 211.820312 77.667969 211.667969 77.285156 C 211.546875 76.976562 211.34375 76.710938 211.074219 76.511719 C 210.832031 76.335938 210.539062 76.242188 210.238281 76.242188 C 209.761719 76.238281 209.304688 76.449219 209.003906 76.820312 C 208.636719 77.308594 208.460938 77.914062 208.503906 78.523438 C 208.464844 79.113281 208.644531 79.699219 209 80.167969 C 209.300781 80.546875 209.757812 80.761719 210.238281 80.757812 C 210.527344 80.757812 210.8125 80.667969 211.050781 80.5 C 211.320312 80.308594 211.53125 80.039062 211.65625 79.730469 C 211.816406 79.339844 211.894531 78.914062 211.882812 78.492188 Z M 211.882812 78.492188 "></path><path style=" stroke:none;fill-rule:nonzero;fill:rgb(76.078431%,85.490196%,39.215686%);fill-opacity:1;" d="M 219.664062 81.128906 L 219.664062 80.902344 C 219.46875 81.152344 219.246094 81.378906 218.996094 81.578125 C 218.769531 81.757812 218.511719 81.894531 218.234375 81.980469 C 217.925781 82.074219 217.609375 82.121094 217.289062 82.113281 C 216.890625 82.121094 216.496094 82.03125 216.140625 81.847656 C 215.8125 81.683594 215.542969 81.429688 215.351562 81.117188 C 215.105469 80.613281 214.992188 80.050781 215.023438 79.492188 L 215.023438 75.976562 C 215 75.691406 215.085938 75.40625 215.261719 75.179688 C 215.425781 75.003906 215.65625 74.910156 215.898438 74.917969 C 216.140625 74.910156 216.378906 75.007812 216.542969 75.183594 C 216.722656 75.40625 216.8125 75.691406 216.789062 75.976562 L 216.789062 78.816406 C 216.78125 79.164062 216.816406 79.511719 216.894531 79.851562 C 216.945312 80.105469 217.078125 80.332031 217.265625 80.507812 C 217.472656 80.675781 217.730469 80.761719 217.996094 80.746094 C 218.296875 80.746094 218.589844 80.652344 218.835938 80.480469 C 219.09375 80.308594 219.292969 80.066406 219.414062 79.78125 C 219.542969 79.242188 219.59375 78.6875 219.5625 78.132812 L 219.5625 75.976562 C 219.539062 75.691406 219.628906 75.40625 219.808594 75.183594 C 219.972656 75.007812 220.207031 74.910156 220.449219 74.917969 C 220.6875 74.910156 220.921875 75.003906 221.082031 75.179688 C 221.257812 75.40625 221.34375 75.691406 221.320312 75.976562 L 221.320312 81.117188 C 221.34375 81.390625 221.261719 81.660156 221.09375 81.875 C 220.941406 82.042969 220.726562 82.136719 220.5 82.128906 C 220.273438 82.132812 220.050781 82.039062 219.902344 81.867188 C 219.734375 81.660156 219.648438 81.394531 219.664062 81.128906 Z M 219.664062 81.128906 "></path><path style=" stroke:none;fill-rule:nonzero;fill:rgb(76.078431%,85.490196%,39.215686%);fill-opacity:1;" d="M 224.714844 75.914062 L 224.714844 76.125 C 224.996094 75.757812 225.347656 75.449219 225.75 75.21875 C 226.125 75.023438 226.542969 74.925781 226.96875 74.929688 C 227.5 74.925781 228.019531 75.074219 228.46875 75.355469 C 228.941406 75.652344 229.320312 76.078125 229.554688 76.585938 C 229.832031 77.1875 229.96875 77.847656 229.953125 78.511719 C 229.957031 79.019531 229.882812 79.527344 229.722656 80.011719 C 229.589844 80.433594 229.375 80.824219 229.09375 81.164062 C 228.832031 81.46875 228.507812 81.710938 228.144531 81.878906 C 227.773438 82.046875 227.375 82.128906 226.96875 82.128906 C 226.523438 82.144531 226.085938 82.039062 225.695312 81.824219 C 225.316406 81.585938 224.984375 81.285156 224.714844 80.925781 L 224.714844 83.589844 C 224.714844 84.371094 224.433594 84.757812 223.867188 84.757812 C 223.609375 84.796875 223.351562 84.675781 223.207031 84.457031 C 223.082031 84.179688 223.027344 83.878906 223.042969 83.578125 L 223.042969 75.925781 C 223.023438 75.652344 223.101562 75.382812 223.265625 75.167969 C 223.417969 74.996094 223.640625 74.90625 223.867188 74.917969 C 224.097656 74.910156 224.320312 75.003906 224.476562 75.175781 C 224.648438 75.378906 224.734375 75.644531 224.714844 75.914062 Z M 228.179688 78.492188 C 228.191406 78.078125 228.117188 77.667969 227.964844 77.285156 C 227.84375 76.976562 227.640625 76.710938 227.375 76.511719 C 227.128906 76.335938 226.835938 76.242188 226.535156 76.242188 C 226.058594 76.238281 225.605469 76.449219 225.300781 76.820312 C 224.933594 77.308594 224.753906 77.914062 224.800781 78.523438 C 224.761719 79.113281 224.9375 79.699219 225.296875 80.167969 C 225.597656 80.546875 226.054688 80.761719 226.535156 80.757812 C 226.824219 80.757812 227.109375 80.667969 227.351562 80.5 C 227.621094 80.304688 227.828125 80.039062 227.953125 79.730469 C 228.113281 79.339844 228.191406 78.914062 228.179688 78.492188 Z M 228.179688 78.492188 "></path><path style=" stroke:none;fill-rule:nonzero;fill:rgb(76.078431%,85.490196%,39.215686%);fill-opacity:1;" d="M 232.066406 82.140625 C 231.792969 82.148438 231.53125 82.054688 231.324219 81.878906 C 231.113281 81.695312 231 81.421875 231.015625 81.140625 C 231.011719 80.878906 231.121094 80.625 231.320312 80.453125 C 231.515625 80.269531 231.773438 80.167969 232.039062 80.171875 C 232.238281 80.171875 232.433594 80.230469 232.601562 80.34375 C 232.777344 80.464844 232.914062 80.636719 232.996094 80.839844 C 233.097656 81.09375 233.148438 81.371094 233.140625 81.648438 C 233.140625 82.0625 233.046875 82.476562 232.867188 82.851562 C 232.710938 83.191406 232.484375 83.496094 232.203125 83.742188 C 232.011719 83.929688 231.761719 84.046875 231.492188 84.070312 C 231.371094 84.074219 231.25 84.027344 231.167969 83.9375 C 231.085938 83.855469 231.039062 83.742188 231.042969 83.628906 C 231.042969 83.445312 231.144531 83.28125 231.304688 83.199219 C 231.742188 83.023438 232.035156 82.609375 232.066406 82.140625 Z M 232.066406 82.140625 "></path><path style=" stroke:none;fill-rule:nonzero;fill:rgb(76.078431%,85.490196%,39.215686%);fill-opacity:1;" d="M 240.0625 73.359375 L 240.0625 75.988281 C 240.253906 75.757812 240.476562 75.550781 240.71875 75.371094 C 240.933594 75.21875 241.171875 75.105469 241.425781 75.03125 C 241.699219 74.953125 241.980469 74.917969 242.261719 74.917969 C 242.675781 74.910156 243.089844 75.007812 243.457031 75.203125 C 243.804688 75.394531 244.089844 75.683594 244.277344 76.035156 C 244.402344 76.253906 244.488281 76.496094 244.527344 76.746094 C 244.574219 77.046875 244.59375 77.347656 244.59375 77.652344 L 244.59375 81.050781 C 244.613281 81.339844 244.527344 81.625 244.351562 81.855469 C 244.1875 82.039062 243.949219 82.136719 243.703125 82.128906 C 243.121094 82.128906 242.832031 81.769531 242.832031 81.050781 L 242.832031 78.054688 C 242.855469 77.605469 242.769531 77.15625 242.578125 76.746094 C 242.375 76.421875 242 76.242188 241.621094 76.289062 C 241.316406 76.285156 241.015625 76.378906 240.769531 76.558594 C 240.511719 76.742188 240.316406 77 240.203125 77.296875 C 240.085938 77.753906 240.039062 78.230469 240.0625 78.707031 L 240.0625 81.050781 C 240.078125 81.339844 239.996094 81.625 239.824219 81.855469 C 239.65625 82.039062 239.414062 82.140625 239.167969 82.128906 C 238.582031 82.128906 238.292969 81.769531 238.292969 81.050781 L 238.292969 73.359375 C 238.269531 73.070312 238.351562 72.785156 238.523438 72.550781 C 238.683594 72.367188 238.921875 72.269531 239.167969 72.28125 C 239.414062 72.269531 239.65625 72.367188 239.824219 72.554688 C 239.996094 72.785156 240.082031 73.070312 240.0625 73.359375 Z M 240.0625 73.359375 "></path><path style=" stroke:none;fill-rule:nonzero;fill:rgb(76.078431%,85.490196%,39.215686%);fill-opacity:1;" d="M 252.957031 78.523438 C 252.964844 79.019531 252.878906 79.515625 252.710938 79.984375 C 252.558594 80.414062 252.316406 80.804688 252 81.132812 C 251.6875 81.457031 251.304688 81.707031 250.886719 81.871094 C 250.421875 82.046875 249.925781 82.136719 249.429688 82.128906 C 248.9375 82.136719 248.445312 82.046875 247.984375 81.867188 C 247.566406 81.703125 247.1875 81.449219 246.875 81.125 C 246.558594 80.796875 246.316406 80.410156 246.164062 79.980469 C 245.996094 79.515625 245.914062 79.019531 245.921875 78.523438 C 245.914062 78.019531 246 77.523438 246.167969 77.046875 C 246.316406 76.621094 246.558594 76.230469 246.871094 75.90625 C 247.1875 75.585938 247.566406 75.335938 247.984375 75.175781 C 248.445312 75 248.9375 74.914062 249.429688 74.917969 C 249.929688 74.914062 250.421875 75 250.886719 75.179688 C 251.308594 75.34375 251.691406 75.59375 252.007812 75.917969 C 252.320312 76.246094 252.5625 76.632812 252.714844 77.0625 C 252.882812 77.53125 252.964844 78.023438 252.957031 78.523438 Z M 251.183594 78.523438 C 251.21875 77.921875 251.050781 77.328125 250.707031 76.835938 C 250.40625 76.4375 249.929688 76.214844 249.429688 76.230469 C 249.105469 76.222656 248.785156 76.316406 248.515625 76.5 C 248.238281 76.699219 248.027344 76.976562 247.90625 77.296875 C 247.757812 77.6875 247.683594 78.105469 247.695312 78.523438 C 247.683594 78.9375 247.757812 79.351562 247.90625 79.738281 C 248.023438 80.058594 248.234375 80.332031 248.507812 80.53125 C 248.777344 80.71875 249.101562 80.816406 249.429688 80.808594 C 249.929688 80.828125 250.40625 80.601562 250.707031 80.203125 C 251.050781 79.710938 251.21875 79.121094 251.183594 78.523438 Z M 251.183594 78.523438 "></path><path style=" stroke:none;fill-rule:nonzero;fill:rgb(76.078431%,85.490196%,39.215686%);fill-opacity:1;" d="M 260.96875 78.523438 C 260.972656 79.019531 260.890625 79.515625 260.71875 79.984375 C 260.566406 80.414062 260.324219 80.804688 260.007812 81.132812 C 259.695312 81.457031 259.316406 81.707031 258.894531 81.871094 C 258.429688 82.046875 257.9375 82.136719 257.4375 82.128906 C 256.945312 82.136719 256.453125 82.046875 255.996094 81.867188 C 255.578125 81.703125 255.199219 81.449219 254.882812 81.125 C 254.570312 80.796875 254.324219 80.410156 254.171875 79.980469 C 254.003906 79.515625 253.921875 79.019531 253.929688 78.523438 C 253.921875 78.019531 254.007812 77.523438 254.175781 77.046875 C 254.328125 76.621094 254.566406 76.230469 254.878906 75.90625 C 255.195312 75.585938 255.574219 75.335938 255.996094 75.175781 C 256.457031 75 256.945312 74.914062 257.4375 74.917969 C 257.9375 74.914062 258.429688 75 258.894531 75.179688 C 259.316406 75.34375 259.699219 75.59375 260.015625 75.917969 C 260.328125 76.246094 260.570312 76.632812 260.722656 77.0625 C 260.890625 77.53125 260.972656 78.023438 260.96875 78.523438 Z M 259.191406 78.523438 C 259.226562 77.921875 259.0625 77.328125 258.71875 76.835938 C 258.414062 76.4375 257.9375 76.214844 257.4375 76.230469 C 257.113281 76.222656 256.792969 76.316406 256.527344 76.5 C 256.246094 76.699219 256.035156 76.976562 255.917969 77.296875 C 255.765625 77.6875 255.695312 78.105469 255.703125 78.523438 C 255.695312 78.9375 255.765625 79.351562 255.914062 79.738281 C 256.03125 80.058594 256.242188 80.332031 256.515625 80.53125 C 256.785156 80.71875 257.109375 80.816406 257.4375 80.808594 C 257.9375 80.828125 258.414062 80.601562 258.71875 80.203125 C 259.058594 79.710938 259.226562 79.121094 259.191406 78.523438 Z M 259.191406 78.523438 "></path><path style=" stroke:none;fill-rule:nonzero;fill:rgb(76.078431%,85.490196%,39.215686%);fill-opacity:1;" d="M 264.113281 79.570312 L 264.113281 81.050781 C 264.136719 81.34375 264.046875 81.632812 263.863281 81.859375 C 263.695312 82.039062 263.464844 82.136719 263.222656 82.128906 C 262.980469 82.136719 262.75 82.035156 262.59375 81.855469 C 262.414062 81.628906 262.324219 81.339844 262.347656 81.050781 L 262.347656 76.113281 C 262.347656 75.316406 262.632812 74.917969 263.207031 74.917969 C 263.453125 74.898438 263.691406 75 263.84375 75.195312 C 263.988281 75.445312 264.0625 75.730469 264.054688 76.023438 C 264.222656 75.710938 264.445312 75.433594 264.707031 75.195312 C 264.960938 75 265.277344 74.902344 265.597656 74.917969 C 265.976562 74.921875 266.347656 75.015625 266.679688 75.195312 C 266.984375 75.320312 267.1875 75.609375 267.203125 75.9375 C 267.207031 76.140625 267.125 76.335938 266.980469 76.472656 C 266.851562 76.605469 266.679688 76.679688 266.496094 76.683594 C 266.335938 76.660156 266.179688 76.621094 266.027344 76.5625 C 265.816406 76.492188 265.59375 76.449219 265.371094 76.445312 C 265.140625 76.433594 264.914062 76.507812 264.734375 76.648438 C 264.554688 76.8125 264.421875 77.023438 264.355469 77.257812 C 264.253906 77.566406 264.191406 77.886719 264.164062 78.214844 C 264.132812 78.585938 264.113281 79.035156 264.113281 79.570312 Z M 264.113281 79.570312 "></path><path style=" stroke:none;fill-rule:nonzero;fill:rgb(76.078431%,85.490196%,39.215686%);fill-opacity:1;" d="M 272.304688 81.128906 C 271.925781 81.433594 271.507812 81.683594 271.066406 81.878906 C 270.636719 82.050781 270.179688 82.132812 269.722656 82.128906 C 269.308594 82.136719 268.898438 82.042969 268.527344 81.859375 C 268.199219 81.695312 267.925781 81.441406 267.734375 81.128906 C 267.550781 80.828125 267.453125 80.480469 267.457031 80.128906 C 267.445312 79.671875 267.609375 79.226562 267.917969 78.886719 C 268.253906 78.527344 268.695312 78.285156 269.175781 78.199219 C 269.289062 78.171875 269.570312 78.113281 270.015625 78.023438 C 270.457031 77.933594 270.839844 77.847656 271.15625 77.773438 C 271.472656 77.695312 271.816406 77.605469 272.1875 77.496094 C 272.199219 77.132812 272.097656 76.773438 271.90625 76.46875 C 271.628906 76.207031 271.25 76.085938 270.875 76.140625 C 270.527344 76.121094 270.179688 76.183594 269.859375 76.328125 C 269.621094 76.464844 269.421875 76.65625 269.277344 76.890625 C 269.171875 77.0625 269.058594 77.230469 268.933594 77.390625 C 268.8125 77.488281 268.65625 77.53125 268.503906 77.507812 C 268.316406 77.511719 268.132812 77.445312 267.992188 77.316406 C 267.847656 77.195312 267.769531 77.015625 267.773438 76.828125 C 267.78125 76.496094 267.894531 76.175781 268.101562 75.917969 C 268.375 75.585938 268.730469 75.335938 269.132812 75.191406 C 269.691406 74.984375 270.28125 74.886719 270.875 74.902344 C 271.496094 74.878906 272.117188 74.972656 272.707031 75.179688 C 273.121094 75.335938 273.460938 75.652344 273.648438 76.054688 C 273.851562 76.558594 273.945312 77.097656 273.925781 77.640625 C 273.925781 78.054688 273.921875 78.40625 273.921875 78.699219 C 273.917969 78.988281 273.914062 79.3125 273.910156 79.667969 C 273.914062 80.019531 273.96875 80.371094 274.074219 80.707031 C 274.15625 80.933594 274.210938 81.167969 274.242188 81.40625 C 274.234375 81.601562 274.140625 81.785156 273.984375 81.902344 C 273.828125 82.046875 273.621094 82.128906 273.40625 82.128906 C 273.199219 82.117188 273.007812 82.023438 272.867188 81.871094 C 272.652344 81.648438 272.460938 81.398438 272.304688 81.128906 Z M 272.1875 78.5625 C 271.820312 78.6875 271.441406 78.789062 271.058594 78.863281 C 270.5625 78.96875 270.222656 79.046875 270.03125 79.097656 C 269.832031 79.152344 269.644531 79.253906 269.488281 79.390625 C 269.3125 79.542969 269.21875 79.765625 269.230469 79.996094 C 269.226562 80.257812 269.335938 80.511719 269.535156 80.683594 C 269.753906 80.878906 270.039062 80.976562 270.328125 80.964844 C 270.667969 80.96875 271 80.890625 271.296875 80.734375 C 271.566406 80.605469 271.792969 80.398438 271.949219 80.140625 C 272.136719 79.726562 272.21875 79.269531 272.1875 78.816406 Z M 272.1875 78.5625 "></path><path style=" stroke:none;fill-rule:nonzero;fill:rgb(76.078431%,85.490196%,39.215686%);fill-opacity:1;" d="M 277.175781 82.351562 L 277.335938 81.953125 L 275.160156 76.457031 C 275.054688 76.242188 274.984375 76.007812 274.960938 75.769531 C 274.957031 75.621094 275 75.476562 275.074219 75.347656 C 275.152344 75.21875 275.265625 75.109375 275.398438 75.035156 C 275.523438 74.960938 275.671875 74.917969 275.820312 74.917969 C 276.039062 74.902344 276.253906 74.992188 276.398438 75.164062 C 276.550781 75.375 276.667969 75.609375 276.742188 75.859375 L 278.234375 80.226562 L 279.652344 76.164062 C 279.738281 75.902344 279.839844 75.644531 279.957031 75.390625 C 280.019531 75.242188 280.117188 75.113281 280.246094 75.015625 C 280.378906 74.941406 280.527344 74.910156 280.675781 74.917969 C 280.8125 74.917969 280.945312 74.957031 281.0625 75.023438 C 281.179688 75.09375 281.28125 75.191406 281.347656 75.3125 C 281.414062 75.429688 281.445312 75.5625 281.445312 75.695312 C 281.429688 75.78125 281.402344 75.894531 281.363281 76.046875 C 281.320312 76.199219 281.277344 76.351562 281.222656 76.507812 L 278.914062 82.5625 C 278.761719 83 278.566406 83.417969 278.332031 83.816406 C 278.148438 84.113281 277.886719 84.355469 277.578125 84.515625 C 277.179688 84.695312 276.746094 84.777344 276.3125 84.757812 C 275.917969 84.777344 275.519531 84.722656 275.148438 84.589844 C 274.898438 84.492188 274.738281 84.242188 274.757812 83.972656 C 274.746094 83.796875 274.816406 83.625 274.941406 83.503906 C 275.097656 83.378906 275.292969 83.320312 275.492188 83.335938 C 275.585938 83.335938 275.679688 83.351562 275.769531 83.375 C 275.863281 83.398438 275.960938 83.414062 276.058594 83.414062 C 276.222656 83.421875 276.386719 83.390625 276.539062 83.324219 C 276.671875 83.25 276.777344 83.140625 276.851562 83.007812 C 276.976562 82.796875 277.082031 82.578125 277.175781 82.351562 Z M 277.175781 82.351562 "></path><path style=" stroke:none;fill-rule:nonzero;fill:rgb(76.078431%,85.490196%,39.215686%);fill-opacity:1;" d="M 283.3125 77.84375 L 283.105469 74.730469 C 283.066406 74.121094 283.046875 73.6875 283.046875 73.425781 C 283.027344 73.117188 283.128906 72.816406 283.328125 72.582031 C 283.519531 72.378906 283.789062 72.269531 284.070312 72.28125 C 284.375 72.242188 284.667969 72.398438 284.816406 72.667969 C 284.957031 73.019531 285.023438 73.398438 285.003906 73.78125 C 285.003906 74.070312 284.988281 74.363281 284.957031 74.652344 L 284.679688 77.855469 C 284.667969 78.15625 284.601562 78.453125 284.484375 78.730469 C 284.398438 78.925781 284.203125 79.046875 283.992188 79.035156 C 283.785156 79.050781 283.589844 78.933594 283.507812 78.742188 C 283.394531 78.453125 283.328125 78.148438 283.3125 77.84375 Z M 284.03125 82.113281 C 283.777344 82.117188 283.53125 82.027344 283.339844 81.859375 C 283.140625 81.675781 283.03125 81.414062 283.046875 81.140625 C 283.042969 80.882812 283.144531 80.636719 283.328125 80.457031 C 283.507812 80.269531 283.757812 80.167969 284.019531 80.171875 C 284.277344 80.167969 284.53125 80.269531 284.714844 80.457031 C 284.902344 80.632812 285.007812 80.882812 285.003906 81.140625 C 285.015625 81.410156 284.910156 81.671875 284.710938 81.855469 C 284.527344 82.027344 284.28125 82.117188 284.03125 82.113281 Z M 284.03125 82.113281 "></path><path style=" stroke:none;fill-rule:nonzero;fill:rgb(4.313725%,34.901961%,29.019608%);fill-opacity:1;" d="M 274.71875 3.019531 C 273.007812 2.625 271.117188 4.503906 270.496094 7.21875 C 269.875 9.933594 270.757812 12.453125 272.46875 12.847656 C 274.179688 13.242188 276.070312 11.359375 276.691406 8.644531 C 277.3125 5.933594 276.429688 3.410156 274.71875 3.019531 Z M 274.71875 3.019531 "></path><path style=" stroke:none;fill-rule:nonzero;fill:rgb(4.313725%,34.901961%,29.019608%);fill-opacity:1;" d="M 284.144531 0.296875 C 282.417969 -0.113281 280.496094 1.761719 279.855469 4.480469 C 279.214844 7.203125 280.097656 9.738281 281.824219 10.148438 C 283.554688 10.558594 285.472656 8.6875 286.117188 5.964844 C 286.757812 3.246094 285.875 0.707031 284.144531 0.296875 Z M 284.144531 0.296875 "></path><path style=" stroke:none;fill-rule:nonzero;fill:rgb(4.313725%,34.901961%,29.019608%);fill-opacity:1;" d="M 294.183594 5.886719 C 292.914062 4.671875 290.328125 5.320312 288.414062 7.335938 C 286.5 9.351562 285.976562 11.972656 287.246094 13.1875 C 288.519531 14.402344 291.101562 13.753906 293.015625 11.738281 C 294.929688 9.722656 295.453125 7.101562 294.183594 5.886719 Z M 294.183594 5.886719 "></path><path style=" stroke:none;fill-rule:nonzero;fill:rgb(4.313725%,34.901961%,29.019608%);fill-opacity:1;" d="M 297.414062 15.734375 C 296.230469 14.464844 293.648438 14.960938 291.644531 16.839844 C 289.640625 18.722656 288.976562 21.273438 290.160156 22.542969 C 291.339844 23.808594 293.925781 23.3125 295.929688 21.433594 C 297.929688 19.554688 298.597656 17 297.414062 15.734375 Z M 297.414062 15.734375 "></path><path style=" stroke:none;fill-rule:nonzero;fill:rgb(4.313725%,34.901961%,29.019608%);fill-opacity:1;" d="M 285.863281 29.195312 C 283.722656 33.597656 282.621094 26.707031 277.886719 24.261719 C 272.828125 21.644531 267.171875 23.960938 269.429688 20.234375 C 271.644531 16.582031 278.644531 13.390625 282.605469 15.445312 C 286.894531 17.671875 287.664062 25.488281 285.863281 29.195312 Z M 285.863281 29.195312 "></path></g></svg> 