<svg width="101" height="58" viewBox="0 0 101 58" fill="none" xmlns="http://www.w3.org/2000/svg">
<path d="M65.6346 14.4554C67.163 13.0523 71.0777 7.94103 67.1836 3.09815C65.6992 1.25243 63.5122 0.108799 61.1453 0.00857851C59.3981 -0.0654733 57.2779 0.324273 55.117 1.78972C53.3236 3.00573 51.9411 4.74344 51.1906 6.77569C49.7335 10.7216 49.0503 18.5087 57.9204 30.4639C57.9204 30.4639 56.8252 26.5163 60.932 20.0917C60.932 20.0917 62.7794 17.1134 65.6346 14.4548V14.4554Z" fill="url(#paint0_linear_1102_1308)"/>
<path d="M57.923 30.9311C57.923 30.9311 55.1719 25.0515 44.6705 22.4836C44.6705 22.4836 40.8721 21.6924 39.9334 21.5822C38.9947 21.472 28.78 18.9715 31.9525 9.84917C32.59 8.01625 35.3327 2.44454 44.2306 4.04807C45.7401 4.48848 57.3734 7.50679 57.9235 30.9306L57.923 30.9311Z" fill="url(#paint1_linear_1102_1308)"/>
<path d="M22.9282 32.6214C13.0086 28.6176 8.52821 36.0484 8.52821 36.0484V31.5207H0C0 31.5207 0.00167034 38.2677 0 45.9207C0.339079 54.7874 8.52765 57.9945 8.52765 57.9945V43.5054C8.52765 39.9208 12.395 39.0823 12.395 39.0823C19.2808 37.6887 18.9979 44.5794 18.9979 44.5794V57.9945H27.393C27.393 57.9945 27.5985 42.0461 27.393 40.3245C26.7355 34.8174 24.8491 33.833 22.9282 32.6214Z" fill="#424243"/>
<path d="M50.2204 31.4373V45.9264C50.2204 49.5109 46.353 50.3494 46.353 50.3494C39.4673 51.743 39.7501 44.8523 39.7501 44.8523V31.4373H31.355C31.355 31.4373 31.1495 47.3857 31.355 49.1072C32.0125 54.6144 33.8989 55.5988 35.8198 56.8103C45.7394 60.8141 50.2198 53.3833 50.2198 53.3833V57.9111H58.7475C58.7475 57.9111 58.7458 51.164 58.7475 43.511C58.4084 34.6443 50.2198 31.4373 50.2198 31.4373H50.2204Z" fill="#424243"/>
<path d="M62.7793 29.508C62.781 37.1616 62.7793 57.9946 62.7793 57.9946H71.3069V17.4348C71.3069 17.4348 63.1178 20.6419 62.7793 29.5086V29.508Z" fill="#424243"/>
<path d="M87.5268 31.0469C80.0855 31.0469 74.0527 37.0796 74.0527 44.521C74.0527 51.9623 80.0855 57.9951 87.5268 57.9951C94.9682 57.9951 101.001 51.9623 101.001 44.521C101.001 37.0796 94.9682 31.0469 87.5268 31.0469ZM87.5268 50.2001C84.3905 50.2001 81.8477 47.6573 81.8477 44.521C81.8477 41.3846 84.3905 38.8418 87.5268 38.8418C90.6632 38.8418 93.206 41.3846 93.206 44.521C93.206 47.6573 90.6632 50.2001 87.5268 50.2001Z" fill="#424243"/>
<defs>
<linearGradient id="paint0_linear_1102_1308" x1="50.2669" y1="21.3413" x2="69.0238" y2="5.60035" gradientUnits="userSpaceOnUse">
<stop offset="0.54" stop-color="#971B3D"/>
<stop offset="0.77" stop-color="#A61D3B"/>
<stop offset="1" stop-color="#BB2239"/>
</linearGradient>
<linearGradient id="paint1_linear_1102_1308" x1="32.8021" y1="8.03685" x2="61.6395" y2="23.3695" gradientUnits="userSpaceOnUse">
<stop offset="0.07" stop-color="#E22030"/>
<stop offset="0.27" stop-color="#D61F31"/>
<stop offset="0.64" stop-color="#B91E35"/>
<stop offset="1" stop-color="#961D3A"/>
</linearGradient>
</defs>
</svg>
