<svg width="610" height="150" xmlns="http://www.w3.org/2000/svg" xmlns:svg="http://www.w3.org/2000/svg">
 <title>Smith Optics</title>
 <g>
  <title>Layer 1</title>
  <g id="svg_1">
   <path d="m24.6,42.399997c0,4.2 7.1,6.7 7.1,6.7s56.8,23.1 92.8,50.5l0,23.8c-50.8,-37.9 -110.2,-59.9 -110.2,-59.9s-5.4,-1.9 -7.1,-2.9c-1.6,-1 -2.1,-3.3 -2.2,-5.5l0,-23.6c0,-3.4 7.2,-9.3 7.2,-9.3c16.6,-14.5 33.3,-17.5 54.1,-17.5c32.6,0 58.3,18.6 58.3,18.6l-0.1,22.1c0,0 -25.9,-19.4 -58.2,-19.4c-30.6,0 -41.7,10.8 -41.7,16.4m66.5,79c0,0 -8.7,2.8 -24.2,2.8c-24.2,0 -46.7,-12.1 -61.9,-21.3l0,24.2c0,0 24.9,18.2 62.1,18.2c27.2,0 45.9,-9.9 45.9,-9.9s-6.5,-4.7 -11.7,-8.1c-5.2,-3.5 -10.2,-5.9 -10.2,-5.9m224.3,21l22.4,0l0,-134.1l-22.4,0l0,134.1zm46.5,-115l41.4,0l0,115l22.7,0l0,-115l41.3,0l0,-19.1l-105.4,0l0,19.1zm220.7,-19.1l0,60.2l-69.8,0l0,-60.2l-22.4,0l0,134.1l22.4,0l0,-54.4l69.8,0l0,54.4l22.4,0l0,-134.1l-22.4,0zm-363.8,69.6l-48.4,-69.6l-22.3,0l0,134.1l22.3,0l0,-98.9l48.3,70.6l48.4,-70.6l0,98.9l22.2,0l0,-134.1l-22.2,0l-48.3,69.6z" id="svg_2"/>
  </g>
 </g>
</svg>